<?xml version="1.0" encoding="UTF-8"?>
<svg width="256px" height="256px" viewBox="0 0 256 256" version="1.1" xmlns="http://www.w3.org/2000/svg" xmlns:xlink="http://www.w3.org/1999/xlink">
    <!-- Generator: Sketch 49.3 (51167) - http://www.bohemiancoding.com/sketch -->
    <title>buttonbox</title>
    <desc>Created with Sketch.</desc>
    <defs></defs>
    <g id="buttonbox" stroke="none" stroke-width="1" fill="none" fill-rule="evenodd">
        <g id="bg">
            <circle id="Oval-Copy" fill="#FF5500" cx="128" cy="128" r="128"></circle>
            <path d="M48,227.925935 C18.7372005,204.467999 0,168.422153 0,128 C0,57.307552 57.307552,0 128,0 C165.098612,0 198.510978,15.7826939 221.889017,41 L221.641505,41 C199.94208,24.0800455 172.6482,14 143,14 C72.307552,14 15,71.307552 15,142 C15,175.002098 27.4896112,205.087091 48,227.786146 L48,227.925935 Z" id="Combined-Shape" fill="#802B00"></path>
        </g>
        <path d="M117.438279,140.579792 C113.528218,135.575142 114.415558,128.34834 119.420208,124.438279 C124.424858,120.528218 131.65166,121.415558 135.561721,126.420208 C139.471782,131.424858 138.584442,138.65166 133.579792,142.561721 C128.575142,146.471782 121.34834,145.584442 117.438279,140.579792 Z M149.438279,160.579792 C145.528218,155.575142 146.415558,148.34834 151.420208,144.438279 C156.424858,140.528218 163.65166,141.415558 167.561721,146.420208 C171.471782,151.424858 170.584442,158.65166 165.579792,162.561721 C160.575142,166.471782 153.34834,165.584442 149.438279,160.579792 Z M152.131759,69.6277842 C172.706494,72.1540439 189.354947,81.55918 202.077642,97.8434867 C214.800336,114.127793 219.898474,132.557025 217.372215,153.131759 C214.845955,173.706494 205.440819,190.354947 189.156512,203.077642 C172.872205,215.800336 154.442974,220.898474 133.86824,218.372215 C113.293509,215.845952 96.645052,206.440819 83.9223572,190.156512 C71.1996624,173.872205 66.1015281,155.442971 68.6277842,134.86824 C71.1540467,114.293509 80.55918,97.645052 96.8434867,84.9223572 C113.127793,72.1996624 131.557028,67.1015281 152.131759,69.6277842 Z M83.4212765,136.662721 C81.5823197,153.057715 85.7639185,167.793905 95.9662065,180.871745 C106.168494,193.949584 119.444359,201.49364 135.7942,203.504157 C152.144038,205.514647 166.847908,201.411209 179.906242,191.193681 C192.964575,180.976153 200.497373,167.68045 202.504897,151.306193 C204.512388,134.931932 200.41507,120.206097 190.212782,107.128258 C180.010494,94.0504185 166.734622,86.5063678 150.384788,84.4958454 C134.034945,82.4853482 119.33108,86.5887939 106.272747,96.8063218 C93.2144137,107.02385 85.5973365,120.309181 83.4212765,136.662721 Z" id="Page-1" fill="#802B00"></path>
        <path d="M103.438279,125.579792 C99.5282179,120.575142 100.415558,113.34834 105.420208,109.438279 C110.424858,105.528218 117.65166,106.415558 121.561721,111.420208 C125.471782,116.424858 124.584442,123.65166 119.579792,127.561721 C114.575142,131.471782 107.34834,130.584442 103.438279,125.579792 Z M135.438279,145.579792 C131.528218,140.575142 132.415558,133.34834 137.420208,129.438279 C142.424858,125.528218 149.65166,126.415558 153.561721,131.420208 C157.471782,136.424858 156.584442,143.65166 151.579792,147.561721 C146.575142,151.471782 139.34834,150.584442 135.438279,145.579792 Z M138.131759,54.6277842 C158.706494,57.1540439 175.354947,66.55918 188.077642,82.8434867 C200.800336,99.1277934 205.898474,117.557025 203.372215,138.131759 C200.845955,158.706494 191.440819,175.354947 175.156512,188.077642 C158.872205,200.800336 140.442974,205.898474 119.86824,203.372215 C99.2935089,200.845952 82.645052,191.440819 69.9223572,175.156512 C57.1996624,158.872205 52.1015281,140.442971 54.6277842,119.86824 C57.1540467,99.2935089 66.55918,82.645052 82.8434867,69.9223572 C99.1277934,57.1996624 117.557028,52.1015281 138.131759,54.6277842 Z M69.4212765,121.662721 C67.5823197,138.057715 71.7639185,152.793905 81.9662065,165.871745 C92.1684945,178.949584 105.444359,186.49364 121.7942,188.504157 C138.144038,190.514647 152.847908,186.411209 165.906242,176.193681 C178.964575,165.976153 186.497373,152.68045 188.504897,136.306193 C190.512388,119.931932 186.41507,105.206097 176.212782,92.1282579 C166.010494,79.0504185 152.734622,71.5063678 136.384788,69.4958454 C120.034945,67.4853482 105.33108,71.5887939 92.2727469,81.8063218 C79.2144137,92.0238498 71.5973365,105.309181 69.4212765,121.662721 Z" id="Page-1" fill="#FFFFFF"></path>
    </g>
</svg>