<!-- Generator: Adobe Illustrator 24.2.1, SVG Export Plug-In  -->
<svg version="1.1" xmlns="http://www.w3.org/2000/svg" xmlns:xlink="http://www.w3.org/1999/xlink" x="0px" y="0px" width="544.2px"
     height="544.2px" viewBox="0 0 544.2 544.2" style="overflow:visible;enable-background:new 0 0 544.2 544.2;"
     xml:space="preserve">
<defs>
</defs>
<g>
    <path style="fill:#E8750A;" d="M272.1,0C2.1,0,0,121.8,0,272.1s2.1,272.1,272.1,272.1s272.1-121.8,272.1-272.1S542.1,0,272.1,0z"/>
    <g id="button-2_1_">
        <path style="fill:#FFFFFF;" d="M272.1,119.9c-84.1,0-152.2,68.1-152.2,152.2s68.1,152.2,152.2,152.2s152.2-68.1,152.2-152.2
            S356.2,119.9,272.1,119.9z M272.1,393.9c-67.1,0-121.8-54.6-121.8-121.8S205,150.4,272.1,150.4S393.9,205,393.9,272.1
            S339.3,393.9,272.1,393.9z"/>
        <path style="fill:#FFFFFF;" d="M272.1,170C215.7,170,170,215.7,170,272.1c0,56.4,45.7,102.1,102.1,102.1s102.1-45.7,102.1-102.1
            S328.5,170,272.1,170z M231.5,332.8c-11.1,0-20-9-20-20s9-20,20-20c11.1,0,20.1,9,20.1,20S242.6,332.8,231.5,332.8z M231.5,252
            c-11.1,0-20-9-20-20c0-11.1,9-20,20-20c11.1,0,20.1,9,20.1,20C251.6,243,242.6,252,231.5,252z M312.8,332.8c-11.1,0-20-9-20-20
            s9-20,20-20c11.1,0,20.1,9,20.1,20S323.9,332.8,312.8,332.8z M312.8,252c-11.1,0-20-9-20-20c0-11.1,9-20,20-20
            c11.1,0,20.1,9,20.1,20C332.9,243,323.9,252,312.8,252z"/>
    </g>
</g>
</svg>
