<?xml version="1.0" encoding="utf-8"?>
<!-- Generator: Adobe Illustrator 28.0.0, SVG Export Plug-In . SVG Version: 6.00 Build 0)  -->
<svg version="1.1" id="Layer_1" xmlns="http://www.w3.org/2000/svg" xmlns:xlink="http://www.w3.org/1999/xlink" x="0px" y="0px"
	 viewBox="0 0 304.4 304.4" style="enable-background:new 0 0 304.4 304.4;" xml:space="preserve">
<g>
	<g id="button-2_1_">
		<path d="M152.2,0C68.1,0,0,68.1,0,152.2s68.1,152.2,152.2,152.2s152.2-68.1,152.2-152.2S236.3,0,152.2,0z M152.2,274
			c-67.1,0-121.8-54.6-121.8-121.8S85.1,30.5,152.2,30.5S274,85.1,274,152.2S219.4,274,152.2,274z"/>
		<path d="M152.2,50.1c-56.4,0-102.1,45.7-102.1,102.1s45.7,102.1,102.1,102.1s102.1-45.7,102.1-102.1S208.6,50.1,152.2,50.1z
			 M111.6,212.9c-11.1,0-20-9-20-20s9-20,20-20c11.1,0,20.1,9,20.1,20S122.7,212.9,111.6,212.9z M111.6,132.1c-11.1,0-20-9-20-20
			c0-11.1,9-20,20-20c11.1,0,20.1,9,20.1,20S122.7,132.1,111.6,132.1z M192.9,212.9c-11.1,0-20-9-20-20s9-20,20-20
			c11.1,0,20.1,9,20.1,20S204,212.9,192.9,212.9z M192.9,132.1c-11.1,0-20-9-20-20c0-11.1,9-20,20-20c11.1,0,20.1,9,20.1,20
			S204,132.1,192.9,132.1z"/>
	</g>
</g>
</svg>
